<svg width="121" height="121" fill="none" xmlns="http://www.w3.org/2000/svg"><path d="M4.419 91.664h7.696c1.256 0 2.18.288 2.771.86.589.567.885 1.435.885 2.604 0 .768-.167 1.394-.5 1.878-.335.48-.748.816-1.236 1.01 1.04.28 1.746.968 2.12 2.07.127.4.192.864.192 1.385 0 1.259-.296 2.183-.885 2.772-.59.59-1.515.884-2.771.884H4.419V91.664Zm8.464 9.232c0-.768-.384-1.152-1.152-1.152H7.883v2.687h3.848c.768 0 1.152-.384 1.152-1.152v-.383Zm-.576-5.384c0-.768-.384-1.152-1.152-1.152H7.883v2.688h3.272c.768 0 1.152-.385 1.152-1.152v-.384Zm9.133 9.615h-3.75l5.1-13.463h3.84l5.1 13.463h-3.748l-.868-2.403h-4.808l-.868 2.403Zm1.735-4.908h3.072l-1.536-4.515-1.535 4.515Zm20.86 4.717c-2.854.254-5.225.383-7.111.383-1.259 0-2.183-.294-2.772-.884-.59-.589-.884-1.513-.884-2.772v-6.151c0-1.346.302-2.323.91-2.93.61-.612 1.59-.918 2.938-.918h6.92v2.696h-6.153c-.767 0-1.151.384-1.151 1.152v6.151c0 .297.085.53.258.702a.888.888 0 0 0 .66.258c.271 0 .567-.002.885-.008a201.823 201.823 0 0 0 2.045-.058 59.18 59.18 0 0 0 1.369-.084c.56-.037 1.256-.083 2.086-.133v2.596Zm14.237.191h-3.464v-8.271l-4.616 8.271h-3.656V91.664H50v8.272l4.616-8.272h3.656v13.463Zm7.305-2.787c-.063.924-.357 1.652-.885 2.187-.523.53-1.172.792-1.945.792-.767 0-1.492-.064-2.17-.192v-2.595h.868a.807.807 0 0 0 .601-.251.924.924 0 0 0 .259-.618l.584-10h10.668v13.464H70.1V94.36h-4.04l-.484 7.98Zm21.926 2.787H76.827V91.664h10.676v2.696h-7.212v2.596h5.676v2.687h-5.676v2.788h7.212v2.696Zm14.234 0h-3.464v-5.484h-4.808v5.484h-3.464V91.664h3.464v5.292h4.808v-5.292h3.464v13.463Zm5.668 0h-3.748l5.1-13.463h3.84l5.1 13.463h-3.748l-.868-2.403h-4.808l-.868 2.403Zm1.736-4.908h3.072l-1.536-4.515-1.536 4.515Z" fill="#E86A23"/><path d="M1.803 116.156a.58.58 0 0 1-.426-.176.614.614 0 0 1-.175-.442.6.6 0 0 1 .167-.434.588.588 0 0 1 .434-.175.63.63 0 0 1 .45.175.583.583 0 0 1 .185.434.604.604 0 0 1-.184.442.61.61 0 0 1-.45.176Zm6.634 2.437c-.413 0-.774-.081-1.085-.242a1.784 1.784 0 0 1-.743-.768c-.18-.35-.267-.795-.267-1.335 0-.568.092-1.027.275-1.378.188-.354.445-.613.768-.776a2.39 2.39 0 0 1 1.102-.25c.227 0 .45.025.668.075.221.046.403.104.542.175l-.233.618a4.507 4.507 0 0 0-.476-.142 2.235 2.235 0 0 0-.518-.067c-.897 0-1.344.58-1.344 1.736 0 .551.109.975.326 1.269.217.29.543.434.977.434.244 0 .463-.025.659-.075.194-.05.371-.111.534-.184v.668c-.156.079-.33.138-.517.175a2.907 2.907 0 0 1-.668.067Zm5.429-4.031h-1.494v3.948h-.743v-3.948h-1.485v-.635h3.722v.635Zm3.082-.718c.568 0 1.02.198 1.36.592.345.391.518.983.518 1.778 0 .781-.173 1.373-.517 1.778-.34.401-.797.601-1.37.601-.35 0-.642-.064-.876-.192a1.724 1.724 0 0 1-.542-.476h-.05c.004.101.012.226.025.376.016.146.025.269.025.376v1.886h-.752v-6.636h.618l.1.626h.034c.137-.2.32-.367.542-.501.222-.137.518-.208.885-.208Zm-.133.634c-.468 0-.8.132-.994.392-.196.263-.296.66-.3 1.194v.15c0 .564.092.998.275 1.302.188.301.534.451 1.035.451.272 0 .501-.075.685-.225.183-.15.317-.359.4-.626a2.91 2.91 0 0 0 .134-.91c0-.528-.1-.947-.3-1.26-.2-.311-.514-.468-.935-.468Zm7.192 1.736c0 .758-.192 1.344-.576 1.762-.384.413-.906.617-1.56.617-.402 0-.76-.092-1.078-.275a1.926 1.926 0 0 1-.75-.81c-.185-.355-.276-.787-.276-1.294 0-.761.187-1.346.567-1.753.384-.411.904-.617 1.561-.617.411 0 .776.092 1.094.275.321.184.571.451.75.802.178.35.268.782.268 1.293Zm-3.456 0c0 .541.105.969.317 1.286.211.313.551.467 1.019.467.461 0 .801-.154 1.018-.467.217-.317.326-.745.326-1.286 0-.544-.109-.97-.326-1.277-.217-.304-.56-.459-1.027-.459-.467 0-.807.155-1.018.459-.206.307-.309.733-.309 1.277Zm5.354-2.287v2.797c0 .073-.004.175-.009.308-.006.134-.014.274-.025.418-.006.14-.012.246-.016.317l2.454-3.84h.918v4.583h-.701v-3.055c.004-.15.01-.297.017-.443a6.9 6.9 0 0 1 .016-.334l-2.429 3.832h-.935v-4.583h.71Zm7.949.635h-1.495v3.948h-.742v-3.948H30.13v-.635h3.723v.635Zm2.587-.718c.389 0 .727.087 1.01.259.284.166.501.406.651.717a2.5 2.5 0 0 1 .226 1.094v.451h-3.13c.01.517.142.914.392 1.185.255.267.611.401 1.068.401.288 0 .545-.026.768-.076.228-.054.462-.133.702-.233v.651a3.111 3.111 0 0 1-.693.225c-.23.05-.499.075-.81.075-.44 0-.826-.085-1.16-.258a1.896 1.896 0 0 1-.777-.785c-.183-.351-.275-.781-.275-1.294 0-.501.084-.929.25-1.285.172-.361.41-.639.71-.835a1.948 1.948 0 0 1 1.068-.292Zm-.008.617c-.363 0-.647.117-.851.351-.207.23-.33.547-.368.952h2.33c-.007-.384-.099-.695-.276-.935-.173-.244-.45-.368-.835-.368Zm6.548 4.049h-.76v-3.957H40.87c-.073.964-.175 1.741-.309 2.329-.133.591-.308 1.018-.525 1.286-.217.267-.49.4-.818.4-.073 0-.146-.006-.218-.016a.529.529 0 0 1-.175-.042v-.568c.034.013.07.023.109.034a.919.919 0 0 0 .125.008c.305 0 .55-.328.734-.985.188-.655.33-1.68.426-3.072h2.763v4.583Zm2.201-2.705h1.36c1.19 0 1.787.434 1.787 1.303 0 .429-.146.772-.434 1.026-.29.251-.752.376-1.386.376h-2.078v-4.583h.75v1.878Zm2.395 1.344c0-.277-.1-.467-.3-.567-.196-.101-.467-.151-.818-.151h-1.277v1.469h1.294c.317 0 .578-.054.784-.166.211-.117.318-.311.318-.585Zm2.681-3.222v1.903h2.487v-1.903h.752v4.583h-.752v-2.045h-2.487v2.045h-.751v-4.583h.751Zm4.692 4.583v-4.583h.751v1.878h1.186c.594 0 1.035.109 1.319.326.283.217.425.542.425.977 0 .429-.14.772-.417 1.026-.28.251-.733.376-1.36.376H54.95Zm4.45 0v-4.583h.75v4.583h-.75Zm-3.699-.61h1.086c.327 0 .592-.054.793-.166.204-.111.308-.305.308-.585 0-.277-.096-.467-.283-.567-.19-.101-.46-.151-.81-.151H55.7v1.469Zm7.667-4.056c.388 0 .726.087 1.01.259.284.166.501.406.651.717a2.5 2.5 0 0 1 .226 1.094v.451h-3.13c.01.517.141.914.392 1.185.254.267.611.401 1.068.401.288 0 .545-.026.768-.076a4.59 4.59 0 0 0 .701-.233v.651a3.109 3.109 0 0 1-.692.225c-.23.05-.5.075-.81.075-.44 0-.827-.085-1.16-.258a1.896 1.896 0 0 1-.777-.785c-.183-.351-.275-.781-.275-1.294 0-.501.083-.929.25-1.285.171-.361.41-.639.71-.835a1.948 1.948 0 0 1 1.068-.292Zm-.008.617c-.363 0-.647.117-.852.351-.206.23-.33.547-.367.952h2.329c-.006-.384-.098-.695-.275-.935-.174-.244-.451-.368-.835-.368Zm10.068-.534v4.583h-.676v-2.922c0-.121.002-.246.008-.375.01-.128.021-.255.034-.384h-.025l-1.494 3.681h-.635l-1.452-3.681h-.025c.017.256.025.517.025.784v2.897h-.676v-4.583h1.001l1.444 3.681 1.47-3.681h1.001Zm3.195-.075c.555 0 .968.123 1.235.367.271.247.41.635.41 1.169v3.122h-.552l-.142-.651h-.041c-.197.25-.405.438-.626.559-.224.117-.526.175-.91.175-.418 0-.764-.108-1.035-.325-.274-.222-.41-.568-.41-1.035 0-.451.178-.802.535-1.052.361-.251.914-.386 1.661-.409l.776-.025v-.276c0-.377-.083-.638-.25-.784-.163-.15-.392-.226-.693-.226-.24 0-.467.038-.684.109a4 4 0 0 0-.61.242l-.225-.568c.194-.104.428-.196.701-.275.278-.077.563-.117.86-.117Zm.893 2.421-.668.025c-.574.023-.972.115-1.193.275-.218.157-.326.38-.326.668 0 .263.077.455.234.576.16.117.363.175.61.175.377 0 .694-.104.95-.317.261-.217.393-.547.393-.993v-.409Zm5.329-1.711H81.35v3.948h-.743v-3.948h-1.486v-.635h3.723v.635Zm2.588-.718c.388 0 .726.087 1.01.259.284.166.5.406.65.717.151.313.226.676.226 1.094v.451h-3.13c.01.517.142.914.392 1.185.255.267.612.401 1.069.401.288 0 .544-.026.768-.076.227-.054.46-.133.7-.233v.651a3.11 3.11 0 0 1-.692.225 3.84 3.84 0 0 1-.81.075c-.44 0-.826-.085-1.16-.258a1.896 1.896 0 0 1-.776-.785c-.184-.351-.276-.781-.276-1.294 0-.501.084-.929.25-1.285.172-.361.41-.639.71-.835a1.948 1.948 0 0 1 1.069-.292Zm-.009.617c-.363 0-.647.117-.851.351-.207.23-.33.547-.367.952h2.328c-.006-.384-.098-.695-.275-.935-.173-.244-.45-.368-.835-.368Zm5.237-.617c.568 0 1.02.198 1.36.592.345.391.518.983.518 1.778 0 .781-.173 1.373-.517 1.778-.34.401-.797.601-1.37.601-.35 0-.642-.064-.876-.192a1.724 1.724 0 0 1-.542-.476h-.05c.004.101.012.226.025.376.016.146.025.269.025.376v1.886h-.752v-6.636h.618l.1.626h.034c.137-.2.319-.367.542-.501.221-.137.518-.208.885-.208Zm-.133.634c-.468 0-.8.132-.994.392-.196.263-.296.66-.3 1.194v.15c0 .564.092.998.275 1.302.188.301.534.451 1.035.451.271 0 .501-.075.685-.225.183-.15.317-.359.4-.626a2.91 2.91 0 0 0 .134-.91c0-.528-.1-.947-.3-1.26-.201-.311-.514-.468-.935-.468Zm3.92-.551v2.797c0 .073-.004.175-.009.308-.006.134-.014.274-.025.418-.006.14-.012.246-.016.317l2.454-3.84h.918v4.583h-.701v-3.055a29.125 29.125 0 0 1 .033-.777l-2.429 3.832h-.935v-4.583h.71Zm6.521-.075c.555 0 .968.123 1.235.367.271.247.409.635.409 1.169v3.122h-.551l-.142-.651h-.042c-.196.25-.404.438-.626.559-.223.117-.526.175-.91.175-.417 0-.763-.108-1.035-.325-.273-.222-.409-.568-.409-1.035 0-.451.178-.802.535-1.052.36-.251.914-.386 1.661-.409l.776-.025v-.276c0-.377-.083-.638-.25-.784-.163-.15-.393-.226-.693-.226-.24 0-.468.038-.685.109a3.995 3.995 0 0 0-.609.242l-.225-.568c.194-.104.427-.196.701-.275.277-.077.563-.117.86-.117Zm.893 2.421-.668.025c-.574.023-.973.115-1.194.275-.217.157-.325.38-.325.668 0 .263.077.455.233.576.161.117.364.175.61.175.377 0 .695-.104.951-.317.261-.217.393-.547.393-.993v-.409Zm5.654 2.237h-.759v-3.957h-1.353c-.073.964-.175 1.741-.308 2.329-.134.591-.309 1.018-.526 1.286-.217.267-.491.4-.818.4-.073 0-.146-.006-.217-.016a.534.534 0 0 1-.176-.042v-.568c.034.013.069.023.109.034a.913.913 0 0 0 .125.008c.305 0 .551-.328.735-.985.187-.655.329-1.68.425-3.072h2.763v4.583Zm1.45 0v-4.583h.751v1.878h1.185c.595 0 1.035.109 1.319.326.284.217.426.542.426.977 0 .429-.14.772-.417 1.026-.28.251-.733.376-1.361.376h-1.903Zm4.449 0v-4.583h.751v4.583h-.751Zm-3.698-.61h1.085c.328 0 .593-.054.793-.166.205-.111.309-.305.309-.585 0-.277-.096-.467-.284-.567-.19-.101-.459-.151-.809-.151h-1.094v1.469Zm9.218-1.744a.58.58 0 0 1-.426-.176.613.613 0 0 1-.175-.442.6.6 0 0 1 .167-.434.588.588 0 0 1 .434-.175.63.63 0 0 1 .451.175.583.583 0 0 1 .183.434.61.61 0 0 1-.634.618Z" fill="#fff"/><mask id="a" style="mask-type:luminance" maskUnits="userSpaceOnUse" x="21" y="9" width="82" height="78"><path d="M21.124 9.482h81.201v77.332H21.124V9.482Z" fill="#fff"/></mask><g mask="url(#a)"><path d="M102.286 81.768H60.325a8.034 8.034 0 0 1-7.45 4.785 8.007 8.007 0 0 1-6.26-3.157.432.432 0 0 1 .356-.695l5.566.017 2.562-4.157-2.562-4.174-5.566-.016a.432.432 0 0 1-.34-.697 8.02 8.02 0 0 1 6.465-3.139c3.224.052 5.973 2.004 7.212 4.769h35.496V40.112l-34.07-22.498-34.105 22.498V75.66h-6.482V36.617L61.733 9.843l40.553 26.774v45.151Z" fill="#E86A23"/></g><path d="m78.972 68.108 9.636-9.636v9.636h-9.636Z" fill="#E86A23"/><path d="M94.716 44.711 65.192 74.235h4.566v-2.324c0-.205.17-.374.372-.374.204 0 .373.169.373.374v2.324h2.546v-2.324c0-.205.17-.374.374-.374.202 0 .373.169.373.374v2.324h2.544v-2.324c0-.205.171-.374.373-.374.205 0 .374.169.374.374v2.324h2.546v-2.324c0-.205.169-.374.374-.374.202 0 .373.169.373.374v2.324h2.544v-2.324c0-.205.169-.374.373-.374.205 0 .374.169.374.374v2.324h2.546v-2.324c0-.205.169-.374.371-.374.205 0 .374.169.374.374v2.324h2.546v-2.324c0-.205.169-.374.373-.374.203 0 .374.169.374.374v2.324h4.563V69.67h-2.324a.375.375 0 0 1-.374-.371c0-.205.17-.374.374-.374h2.324v-2.546h-2.324a.376.376 0 0 1-.374-.373c0-.203.17-.374.374-.374h2.324v-2.543h-2.324a.377.377 0 0 1-.374-.374c0-.204.17-.373.374-.373h2.324v-2.546h-2.324a.376.376 0 0 1-.374-.374c0-.202.17-.371.374-.371h2.324v-2.546h-2.324a.376.376 0 0 1-.374-.374c0-.204.17-.373.374-.373h2.324V53.21h-2.324a.375.375 0 0 1-.374-.372c0-.204.17-.373.374-.373h2.324V49.92h-2.324a.376.376 0 0 1-.374-.373c0-.203.17-.374.374-.374h2.324v-4.462h-.102Zm-5.837 13.1a.742.742 0 0 1 .46.677v9.64a.724.724 0 0 1-.73.728H78.97a.74.74 0 0 1-.68-.457.814.814 0 0 1-.05-.29c0-.186.069-.372.221-.526l9.637-9.637a.724.724 0 0 1 .78-.136Z" fill="#fff"/><mask id="b" style="mask-type:luminance" maskUnits="userSpaceOnUse" x="19" y="5" width="31" height="79"><path d="M19.06 5.88h30.377v77.325H19.06V5.88Z" fill="#fff"/></mask><g mask="url(#b)"><path d="m39.351 23.316-6.481 4.276v-8.485h6.481v4.21Zm8.552-17.391c-1.17-.017-2.325 0-3.495 0a.702.702 0 0 0-.662.39c-.34.628-1.24 1.713-2.206 1.713-1.256.034-2.086-1.577-3.257-1.63-2.41-.083-4.818.02-7.229 0-4.785.222-8.67 2.02-11.825 11.284-.053.188-.17.459.05.561.882.39 4.837-6.329 10.4-5.092 3.174.697 3.224 3.905 3.19 5.159h6.5v-2.85c.016-.984.322-1.833 1.086-2.494.526-.457 1.34-.526 1.968-.238.61.288.95.814 1.254 1.358.188.338.443.49.833.474 1.118-.017 2.239 0 3.36 0 .797 0 1.34-.543 1.34-1.34V7.281c.016-.78-.526-1.34-1.307-1.356ZM32.87 38.333h1.951c.221 0 .407.185.407.407a.411.411 0 0 1-.407.407H32.87v1.746h3.479c.237 0 .406.188.406.41a.412.412 0 0 1-.407.406H32.87v1.747h1.951c.221 0 .407.188.407.407a.413.413 0 0 1-.407.409H32.87v1.746h3.479a.4.4 0 0 1 .406.407.411.411 0 0 1-.407.407H32.87v1.749h1.951c.221 0 .407.185.407.407a.412.412 0 0 1-.407.407H32.87v1.748h3.479a.4.4 0 0 1 .406.407c0 .22-.185.407-.407.407H32.87v1.747h1.951c.221 0 .407.188.407.407a.413.413 0 0 1-.407.409H32.87v1.796h3.479c.237 0 .406.188.406.41a.413.413 0 0 1-.407.407H32.87v1.746h1.951c.221 0 .407.188.407.407a.411.411 0 0 1-.407.407H32.87v1.765h3.479c.237 0 .406.188.406.407a.411.411 0 0 1-.407.407H32.87v1.749h1.951c.221 0 .407.186.407.407a.412.412 0 0 1-.407.407H32.87V66.6h3.479a.4.4 0 0 1 .406.407.411.411 0 0 1-.407.407H32.87v1.766h1.951c.221 0 .407.185.407.406a.411.411 0 0 1-.407.407H32.87v1.766h3.479a.4.4 0 0 1 .406.407.413.413 0 0 1-.407.407H32.87v1.73h1.951c.221 0 .407.187.407.406a.411.411 0 0 1-.407.407H32.87v1.478H21.146v6.481h.322v-1.95c0-.239.188-.408.407-.408.22 0 .407.186.407.407v1.951h1.765v-3.478a.4.4 0 0 1 .407-.407c.221 0 .407.186.407.407v3.478h1.748v-1.95a.4.4 0 0 1 .407-.408c.222 0 .407.186.407.407v1.951h1.766v-3.478a.4.4 0 0 1 .407-.407c.22 0 .407.186.407.407v3.478h1.765v-1.95a.4.4 0 0 1 .407-.408c.219 0 .407.186.407.407v1.951h1.763v-3.478c0-.238.188-.407.41-.407.218 0 .406.186.406.407v3.478h1.764v-1.95c0-.239.187-.408.406-.408.222 0 .41.186.41.407v1.951h1.66V33.971l-6.481 4.276v.086h-.05Z" fill="#fff"/></g><path d="M52.467 48.462h8.637v8.635h-7.398c-.678 0-1.24-.543-1.24-1.238v-7.397Zm9.858 0v8.635h7.397c.68 0 1.24-.543 1.24-1.238v-7.397h-8.637Zm-9.858-8.638v7.398h8.637v-8.635h-7.398c-.697.017-1.24.56-1.24 1.237Zm17.255-1.22h-7.397v8.635h8.637V39.84c0-.695-.543-1.237-1.24-1.237Z" fill="#E86A23"/><path d="M18.226 30.618V87.74" stroke="#fff" stroke-width="2" stroke-linecap="round"/><path d="m12.484 39.75 18.959-12.747" stroke="#fff" stroke-width="1.995" stroke-linecap="round"/><mask id="c" style="mask-type:luminance" maskUnits="userSpaceOnUse" x="68" y="0" width="32" height="30"><path d="M68.135.4h31.518v29.383H68.135V.4Z" fill="#fff"/></mask><g mask="url(#c)"><mask id="d" style="mask-type:luminance" maskUnits="userSpaceOnUse" x="67" y="-8" width="41" height="39"><path d="m80.03-7.011 27.527 18.658L94.969 30.22 67.442 11.563 80.03-7.01Z" fill="#fff"/></mask><g mask="url(#d)"><mask id="e" style="mask-type:luminance" maskUnits="userSpaceOnUse" x="67" y="-8" width="41" height="39"><path d="m80.03-7.011 27.527 18.658L94.969 30.22 67.442 11.563 80.03-7.01Z" fill="#fff"/></mask><g mask="url(#e)"><path d="M96.85 23.235a14.328 14.328 0 0 0 2.3-10.294l-6.67 5.532a.345.345 0 0 1-.44-.532l6.965-5.777A14.34 14.34 0 0 0 95.7 5.616l-5.442 6.53c-.532.74-1.653.87-2.52.283l-1.088-.738c-.867-.587-1.16-1.676-.668-2.444l4.073-7.523A14.333 14.333 0 0 0 82.781.95l-2.845 8.787a.345.345 0 0 1-.521.18.346.346 0 0 1-.134-.393l2.73-8.434a14.329 14.329 0 0 0-8.971 6.005l-1.02 1.503 23.81 16.14 1.019-1.503Zm-9.812-12.116 1.089.739c.563.381 1.273.323 1.582-.132l5.818-6.98c.309-.455.102-1.135-.463-1.517l-2.582-1.75c-.565-.383-1.273-.325-1.582.13l-4.326 7.993c-.308.455-.102 1.135.464 1.517Zm8.487 14.244L71.633 9.17a2.128 2.128 0 0 0-2.387 3.52l23.891 16.194a2.126 2.126 0 0 0 2.953-.568 2.125 2.125 0 0 0-.565-2.953Z" fill="#E86A23"/></g></g></g><path d="M105.415 30.618V87.74" stroke="#fff" stroke-width="2" stroke-linecap="round"/><path d="M61.075 84.352h54.096" stroke="#fff" stroke-width="1.998" stroke-linecap="round"/></svg>